<svg id="eK7ScvfdNL51" xmlns="http://www.w3.org/2000/svg" xmlns:xlink="http://www.w3.org/1999/xlink" viewBox="0 0 200 200"  shape-rendering="geometricPrecision" text-rendering="geometricPrecision">
  <g  transform="translate(100 100)">
  <path  transform="translate(-100 -100)" id="eK7ScvfdNL52"  d="M34.500000,74.200000C34.500000,74.200000,90.100000,74.200000,117.900000,74.200000C139.700000,74.200000,137.700000,103.300000,117.900000,103.300000C100,104,63,103.300000,63,103.300000L63,123L103.400000,123L126.800000,145.600000L165.500000,145.600000C165.500000,145.600000,143.400000,124,140.600000,120.900000C177.400000,105.900000,167.500000,58.300000,133.800000,54.300000C104,54.300000,68.300000,54.300000,54.400000,54.300000C40.400000,54.300000,34.500000,74.200000,34.500000,74.200000Z" fill="rgb(247,147,30)" stroke="none" stroke-width="1" stroke-miterlimit="1" />
  <path transform="translate(-100 -100)" id="eK7ScvfdNL53" d="M117.900000,79.300000L46.400000,79.300000L45.400000,79.300000L44.400000,79.300000C38.900000,79.300000,34.500000,83.700000,34.500000,89.200000C34.500000,89.400000,34.500000,89.600000,34.600000,89.800000C34.600000,89.900000,34.600000,90.100000,34.600000,90.200000L34.600000,145.300000C34.600000,145.500000,34.700000,145.600000,34.900000,145.600000L57.400000,145.600000L57.400000,99.200000L117.900000,99.200000C123.400000,99.200000,127.800000,94.800000,127.800000,89.300000C127.800000,83.800000,123.300000,79.300000,117.900000,79.300000Z" fill="rgb(102,102,102)" stroke="none" stroke-width="1" stroke-miterlimit="1" />
    <!-- <animateTransform attributeName="transform" type="scale" repeatCount="indefinite"  -->
	<!-- dur="1s" -->
	<!-- keyTimes="0;0.05;0.39;0.45;0.6;1"  -->
	<!-- values="0.68;0.8;0.6000000000000001;0.7200000000000001;0.68;0.6400000000000001"  -->
	<!-- calcMode="spline"  -->
	<!-- keySplines="0.215 0.61,0.355 1;0.215 0.61,0.355 1;0.215 0.61,0.355 1;0.215 0.61,0.355 1;0.215 0.61,0.355 1"></animateTransform> -->
	<!-- <animateTransform attributeName="transform" -->
             <!-- type="scale" -->
             <!-- additive="sum"  -->
             <!-- from="0 1" -->
             <!-- to="1 0" -->
             <!-- begin="0s" -->
             <!-- dur="1s" -->
             <!-- repeatCount="indefinite" -->
        <!-- /> -->
		
		<animateTransform 
          attributeName="transform" 
          type="scale" 
            values="0.5; 0.7; 0.6; 0.7; 0.7; 0.5;" 
          dur="1s" 
          repeatCount="indefinite"
          additive="sum"/>   

  </g>
  <g id="eK7ScvfdNL54">
    <path id="eK7ScvfdNL55" d="M187.400000,100C187.400000,148.300000,148.300000,187.400000,100,187.400000C-15.900000,182.800000,-15.900000,17.200000,100,12.600000C148.300000,12.600000,187.400000,51.700000,187.400000,100Z" fill="none" stroke="rgb(247,147,30)" stroke-width="5" stroke-miterlimit="1" stroke-dasharray="12.199700,15.249600" />
    <path id="eK7ScvfdNL56" d="M186.800000,89.800000C192.400000,137.700000,158.100000,181.100000,110.200000,186.700000C-5.500000,195.700000,-24.700000,31.200000,89.800000,13.200000C137.800000,7.600000,181.200000,41.900000,186.800000,89.800000Z" fill="none" stroke="rgb(76,72,68)" stroke-width="5" stroke-miterlimit="1" stroke-dasharray="5.083200,22.366100" />
<animateTransform attributeName="transform" attributeType="XML"
                    type="rotate" from="0 100 100" to="90 100 100" dur="2s"
                    additive="replace" repeatCount="indefinite"/>
 </g>
</svg>