<svg xmlns="http://www.w3.org/2000/svg" viewBox="0 0 232.43 73.28"><defs><style>.cls-1{font-size:18px;stroke:#666;stroke-miterlimit:10;stroke-width:0.5px;font-family:ArabicTransparent-Bold, Arabic Transparent;font-weight:700;}.cls-1,.cls-3{fill:#666;}.cls-2{fill:#f7931e;}.cls-4{fill:none;}</style></defs><g id="Layer_2" data-name="Layer 2"><g id="Layer_1-2" data-name="Layer 1"><text class="cls-1" transform="translate(73.71 41.37) scale(0.9 1)">MEDICAL OPERATION</text><path class="cls-2" d="M.58,10h42c11,0,10,14.66,0,14.66-9,.34-27.64,0-27.64,0V34.6H35.28L47.08,46h19.5S55.45,35.13,54,33.56C72.58,26,67.58,2,50.58,0h-40C3.53,0,.58,10,.58,10Z"/><path class="cls-3" d="M42.58,12.57h-36a5.17,5.17,0,0,0-6,5c0,.62,0,27.66,0,28.27,0,.45,11.32,0,11.48.16V22.57h30.5C49.06,22.67,49.06,12.48,42.58,12.57Z"/><rect class="cls-4" x="47.91" y="61.61" width="16.82" height="3.51"/><path class="cls-2" d="M51.32,53.93c.06-1.1-2.25-.51-2.83-.65-1.27-.15-.41,4.5-.65,5.07h3.48Z"/><path class="cls-2" d="M64.75,61.61V53.93c0-1.1-2.26-.51-2.83-.65-1.33-.36-.39,7.85-.65,8.33H47.88v3.51h0v7.46c-.05,1.1,2.26.51,2.83.65,1.33.35.39-7.63.65-8.11h10v7.46c-.06,1.1,2.25.51,2.83.65,1.32.35.38-7.63.65-8.11h0V61.61Z"/><path class="cls-2" d="M23.36,53.28c-.54.15-2.92-.46-2.87.6v4.47H24C23.74,57.81,24.57,53.14,23.36,53.28Z"/><path class="cls-2" d="M20.49,65.18c.25.46-.64,8.39.61,8,.54-.16,2.92.46,2.87-.6,0-2.39,0-8.72,0-11H20.49Z"/><path class="cls-2" d="M42.33,53.38a2.59,2.59,0,0,0-.74-.1H27.45V56.7H39.39c1.79,0,1.5,2.22,1.5,3.41s2.25.51,2.83.65a.66.66,0,0,0,.65-.65C44.21,58,45.18,54.05,42.33,53.38Z"/><path class="cls-2" d="M43.72,65.86c-5.46-.8-.74,3.26-4.33,4H30.93v-8.2H27.45v8.2h0v3.42H40.89a3,3,0,0,0,3.48-3.42C44.15,69.23,44.93,65.76,43.72,65.86Z"/><path class="cls-2" d="M17,66.44c-.33,1.52.88,5.92-.66,6.8H14.15c-1.32.22-.39-6.07-.65-6.61.28-2.77-8.61-1-9.93-1.5v7.46c.05,1.1-2.26.51-2.83.65C-.62,73.86.37,62,.09,61.62H12c1.79,0,1.5-2.22,1.5-3.41a1.5,1.5,0,0,0-1.5-1.5H.13V53.28H14.29c1.11-.1,2.59,0,2.7,1.42-.46,1.23,1.27,10.81-1.48,10.42A1.48,1.48,0,0,1,17,66.44Z"/></g></g></svg>